<svg width="21" height="21" viewBox="0 0 21 21" fill="none" xmlns="http://www.w3.org/2000/svg">
<path fill-rule="evenodd" clip-rule="evenodd" d="M5.39999 9.51998C5.39999 6.70333 7.68334 4.41998 10.5 4.41998C13.3166 4.41998 15.6 6.70333 15.6 9.51999V14.35L15.6 14.4063C15.5995 15.1181 15.5989 16.1541 16.1708 17H4.82914C5.40104 16.1541 5.40043 15.118 5.40001 14.4063L5.39999 14.35V9.51998ZM10.5 3.41998C7.13105 3.41998 4.39999 6.15105 4.39999 9.51998V14.35C4.39999 15.4593 4.36708 16.5074 3.27638 17.0528C3.06897 17.1565 2.96009 17.3892 3.01336 17.6149C3.06664 17.8406 3.2681 18 3.49999 18H9.8688C9.41267 18.2308 9.09997 18.7039 9.09997 19.25C9.09997 20.0232 9.72677 20.65 10.5 20.65C11.2732 20.65 11.9 20.0232 11.9 19.25C11.9 18.7039 11.5873 18.2308 11.1311 18H17.5C17.7319 18 17.9333 17.8406 17.9866 17.6149C18.0399 17.3892 17.931 17.1565 17.7236 17.0528C16.6329 16.5074 16.6 15.4593 16.6 14.35V9.51999C16.6 6.15105 13.8689 3.41998 10.5 3.41998Z" fill="#2D4D43"/>
</svg>
