<svg width="18" height="18" viewBox="0 0 18 18" fill="none" xmlns="http://www.w3.org/2000/svg">
<path fill-rule="evenodd" clip-rule="evenodd" d="M1.54629 2.14063C1.34629 2.05634 1.11476 2.1107 0.973168 2.27519C0.831578 2.43968 0.812271 2.67672 0.925375 2.86195L4.90815 9.38454L1.12682 16.0259C1.01944 16.2145 1.04599 16.4509 1.19255 16.611C1.3391 16.771 1.57219 16.8183 1.76952 16.7279L17.2163 9.65397C17.3966 9.57139 17.5111 9.39003 17.5081 9.19172C17.505 8.99341 17.3851 8.81564 17.2023 8.73861L1.54629 2.14063ZM5.82698 8.97043L2.58706 3.66442L15.7658 9.21838L2.76317 15.173L5.83921 9.77034L10.6785 9.69628C10.8994 9.6929 11.0757 9.5111 11.0723 9.29021C11.0689 9.06932 10.8871 8.89299 10.6662 8.89638L5.82698 8.97043Z" fill="#2D4D43"/>
</svg>
