<svg width="22" height="17" viewBox="0 0 22 17" fill="none" xmlns="http://www.w3.org/2000/svg">
<path d="M11.3529 16.9513C11.1112 17.0453 10.8913 17.0102 10.7698 16.7844C10.6294 16.5234 10.8219 16.3523 10.9998 16.1797C14.0456 13.2154 17.0871 10.2497 20.1329 7.28395C20.3789 7.04405 20.5814 6.78592 20.648 6.44782C20.7363 5.99469 20.4556 5.70709 19.9824 5.78145C19.7017 5.82493 19.4745 5.9554 19.2647 6.15462C16.1509 9.12034 13.0299 12.079 9.90884 15.0392C9.38649 15.5344 9.38794 15.5316 8.87428 15.0448C8.25644 14.4598 7.64438 13.8691 7.00918 13.3024C6.73426 13.0583 6.70677 12.8955 6.98892 12.6234C8.95531 10.7337 10.9029 8.82714 12.8606 6.92761C13.1283 6.66808 13.3308 6.40012 13.1558 6.01433C13.0212 5.71691 12.7622 5.60187 12.4482 5.59205C12.1444 5.58364 11.9345 5.76461 11.732 5.954C10.0246 7.55892 8.31576 9.16243 6.60693 10.7659C6.36095 10.996 6.09327 11.2078 5.8661 11.4548C5.63459 11.7087 5.42767 11.6764 5.20485 11.4702C4.78089 11.0774 4.35694 10.6846 3.93733 10.2875C2.71467 9.12876 1.50792 7.95453 0.262109 6.81678C-0.114095 6.47307 -0.0648989 6.27667 0.279472 5.95961C2.06933 4.30139 3.84328 2.62633 5.61288 0.947063C5.99632 0.58231 6.32912 0.176872 6.91802 0.0884896C7.52718 -0.00269871 8.05097 0.115145 8.49807 0.536014C9.28087 1.27394 10.081 1.99222 10.8551 2.73856C11.0852 2.96022 11.2227 2.95601 11.444 2.73155C12.1545 2.01467 12.8881 1.31883 13.6072 0.608964C14.4088 -0.18227 15.6242 -0.208924 16.4548 0.566878C17.9567 1.96977 19.4485 3.38109 20.9461 4.78679C21.1096 4.93971 21.2818 5.08561 21.4554 5.2273C22.1586 5.80389 22.1803 6.78872 21.5234 7.41021C18.7713 10.0112 16.0265 12.6206 13.2773 15.2243C13.1963 15.3001 13.1051 15.366 13.0198 15.4362C12.8534 15.4544 12.8244 15.6101 12.7275 15.6985C12.5886 15.829 12.4482 15.9609 12.3093 16.0913C12.2268 16.125 12.1661 16.1783 12.1328 16.2583C11.9953 16.3902 11.8564 16.5234 11.719 16.6553C11.5323 16.6777 11.486 16.8629 11.35 16.9457L11.3529 16.9513Z" fill="#2D4D43"/>
</svg>
